<?xml version="1.0" encoding="utf-8"?>
<!-- Generator: Adobe Illustrator 27.5.0, SVG Export Plug-In . SVG Version: 6.00 Build 0)  -->
<svg version="1.1" id="_x31_" xmlns="http://www.w3.org/2000/svg" xmlns:xlink="http://www.w3.org/1999/xlink" x="0px" y="0px"
	 viewBox="0 0 380 270" style="enable-background:new 0 0 380 270;" xml:space="preserve">
<g>
	<g>
		<path style="fill:#CDBAE0;" d="M325.132,80.051c-52.374-74.402-187.747-64.767-228.5-21.471
			c-19.753,20.986-23.986,39.968-32.411,55.805c-13.072,24.573-34.089,30.676-39.089,64.372
			c-5.742,38.699,18.473,64.242,25.349,66.693l283.401-0.261C352.4,234.301,380.984,159.394,325.132,80.051z"/>
		<path style="opacity:0.3;fill:#A29FBD;" d="M325.132,80.051c-52.374-74.402-187.747-64.768-228.5-21.471
			c-19.754,20.986-23.986,39.968-32.411,55.805c-13.072,24.573-34.089,30.676-39.089,64.372
			c-5.742,38.699,18.473,64.243,25.349,66.693l283.401-0.261C352.4,234.301,380.984,159.394,325.132,80.051z M324.892,241.268
			l-265.561,0.245c-6.444-2.296-35.58-27.996-30.199-64.258c4.685-31.575,30.824-35.53,43.073-58.556
			c7.895-14.84,8.427-36.944,29.427-58.944c38.471-40.303,170.923-48.219,220,21.5C373.969,155.602,342.244,231.066,324.892,241.268
			z"/>
		<g>
			<path style="fill:#CDBAE0;" d="M61.616,104.527C66.973,80.975,79.604,61.35,94.23,48.456
				c16.799-15.132,37.12-22.73,59.201-27.154c0.814-0.163,1.605,0.364,1.768,1.178c0.151,0.751-0.288,1.484-0.996,1.72l-0.018,0.006
				c-20.031,6.7-40.105,13.592-56.619,28.038c-14.638,12.516-26.9,30.323-34.187,52.769c-0.156,0.481-0.672,0.745-1.153,0.589
				C61.773,105.454,61.514,104.983,61.616,104.527z"/>
			<path style="fill:#CDBAE0;" d="M65.406,74.933c3.594-9.087,6.348-13.722,11.227-20.64c3.821-4.975,7.354-9.604,16.568-17.03
				c1.141-0.919,2.811-0.74,3.73,0.401c0.919,1.141,0.74,2.811-0.401,3.73c-0.052,0.042-0.106,0.082-0.16,0.12l-0.076,0.052
				C87.166,47.82,83.65,51.712,79.362,56.468c-5.211,6.296-8.196,10.5-12.42,19.143c-0.204,0.417-0.707,0.59-1.124,0.386
				C65.422,75.803,65.248,75.336,65.406,74.933z"/>
			<path style="fill:#CDBAE0;" d="M356.215,127.729c-1.678-17.313-10.112-34.901-20.097-48.935
				c-10.14-14.251-23.613-27.981-39.528-35.678c-2.03-0.982-3.603,1.723-1.76,3.011c14.514,10.153,27.757,20.837,38.129,35.394
				c10.238,14.369,16.042,29.808,21.379,46.462C354.648,128.955,356.324,128.854,356.215,127.729L356.215,127.729z"/>
			<path style="fill:#CDBAE0;" d="M39.939,234.785c-12.745-15.363-18.929-34.419-19.62-53.891
				c-0.452-24.799,12.901-42.9,20.445-47.953c0.731-0.489,1.72-0.294,2.209,0.437c0.356,0.531,0.35,1.199,0.039,1.712l-0.022,0.035
				c-4.612,7.59-18.445,19.207-18.229,45.593c0.626,19.115,5.831,36.871,17.525,52.198c0.503,0.659,0.377,1.6-0.282,2.103
				C41.363,235.509,40.451,235.399,39.939,234.785z"/>
		</g>
		<path style="opacity:0.4;fill:#A29FBD;" d="M190.122,228.558c-119.358,0-157.851-25.414-168.571-35.749
			c0.053,0.338,0.101,0.678,0.157,1.015c4.1,23.685,18.871,48.059,28.757,51.618l283.539-0.331
			c8.561-5.15,19.214-23.893,22.698-50.381C343.046,206.114,301.95,228.558,190.122,228.558z"/>
		<g style="opacity:0.3;">
			<path style="fill:#A29FBD;" d="M61.616,104.527C66.973,80.975,79.604,61.35,94.23,48.456
				c16.799-15.132,37.12-22.73,59.201-27.154c0.814-0.163,1.605,0.364,1.768,1.178c0.151,0.751-0.288,1.484-0.996,1.72l-0.018,0.006
				c-20.031,6.7-40.105,13.592-56.619,28.038c-14.638,12.516-26.9,30.323-34.187,52.769c-0.156,0.481-0.672,0.745-1.153,0.589
				C61.773,105.454,61.514,104.983,61.616,104.527z"/>
			<path style="fill:#A29FBD;" d="M65.406,74.933c3.594-9.087,6.348-13.722,11.227-20.64c3.821-4.975,7.354-9.604,16.568-17.03
				c1.141-0.919,2.811-0.74,3.73,0.401c0.919,1.141,0.74,2.811-0.401,3.73c-0.052,0.042-0.106,0.082-0.16,0.12l-0.076,0.052
				C87.166,47.82,83.65,51.712,79.362,56.468c-5.211,6.296-8.196,10.5-12.42,19.143c-0.204,0.417-0.707,0.59-1.124,0.386
				C65.422,75.803,65.248,75.336,65.406,74.933z"/>
			<path style="fill:#A29FBD;" d="M356.215,127.729c-1.678-17.313-10.112-34.901-20.097-48.935
				c-10.14-14.251-23.613-27.981-39.528-35.678c-2.03-0.982-3.603,1.723-1.76,3.011c14.514,10.153,27.757,20.837,38.129,35.394
				c10.238,14.369,16.042,29.808,21.379,46.462C354.648,128.955,356.324,128.854,356.215,127.729L356.215,127.729z"/>
			<path style="fill:#A29FBD;" d="M39.939,234.785c-12.745-15.363-18.929-34.419-19.62-53.891
				c-0.452-24.799,12.901-42.9,20.445-47.953c0.731-0.489,1.72-0.294,2.209,0.437c0.356,0.531,0.35,1.199,0.039,1.712l-0.022,0.035
				c-4.612,7.59-18.445,19.207-18.229,45.593c0.626,19.115,5.831,36.871,17.525,52.198c0.503,0.659,0.377,1.6-0.282,2.103
				C41.363,235.509,40.451,235.399,39.939,234.785z"/>
		</g>
	</g>
	<g>
		<g>
			<g>
				<path style="fill:#747FB3;" d="M47.381,134.052c-2.487,7.905-0.044,18.615,1.494,26.573c2.782,14.39,9.227,27.626,12.051,41.881
					c0.179,0.902,1.738,0.713,1.627-0.22c-2.666-22.539-19.075-44.218-14.662-68.093C47.953,133.861,47.485,133.722,47.381,134.052
					L47.381,134.052z"/>
				<g>
					<path style="fill:#747FB3;" d="M47.093,137.164c2.997-2.155,3.743-8.361,2.397-8.797
						C48.143,127.931,45.58,132.005,47.093,137.164z"/>
					<path style="fill:#747FB3;" d="M41.827,138.331c-0.827,1.029,0.167,6.942,5.084,9.47
						C46.408,139.695,42.52,137.468,41.827,138.331z"/>
					<path style="fill:#747FB3;" d="M52.461,146.469c-1.535,0.253-5.596,5.87-3.612,11.528
						C55.128,150.921,53.748,146.257,52.461,146.469z"/>
					<path style="fill:#747FB3;" d="M42.793,160.564c-0.708,1.406,2.321,7.802,9.167,9.221
						C48.871,160.766,43.387,159.385,42.793,160.564z"/>
					<path style="fill:#747FB3;" d="M57.071,164.328c-1.714,0.327-5.566,6.76-2.525,13.072
						C60.725,169.264,58.509,164.054,57.071,164.328z"/>
					<path style="fill:#747FB3;" d="M48.313,181.495c-0.608,1.537,3.192,7.997,10.519,8.906
						C54.715,181.19,48.823,180.206,48.313,181.495z"/>
					<path style="fill:#747FB3;" d="M46.358,147.636c0.158,0.097,0.319,0.166,0.467,0.119L46.358,147.636z"/>
					<path style="fill:#747FB3;" d="M46.358,147.636C46.209,147.544,46.268,147.594,46.358,147.636
						C46.327,147.617,46.358,147.636,46.358,147.636z"/>
				</g>
			</g>
			<g>
				<path style="fill:#747FB3;" d="M90.1,148.879c-4.97,20.247-19.245,42.102-15.071,63.478c0.17,0.872,1.684,0.687,1.571-0.213
					c-2.866-22.787,11.838-41.25,14.121-63.181C90.759,148.606,90.184,148.538,90.1,148.879L90.1,148.879z"/>
				<path style="fill:#747FB3;" d="M90.121,151.507c2.409-2.727,1.658-8.933,0.242-9.076
					C88.946,142.287,87.417,146.794,90.121,151.507z"/>
				<path style="fill:#747FB3;" d="M92.388,163.857c0.98,1.257-1.464,7.277-8.821,8.911
					C85.706,164.336,91.566,162.803,92.388,163.857z"/>
				<path style="fill:#747FB3;" d="M84.782,183.763c1.292,1.241-0.388,8.242-8.226,11.133
					C77.495,185.28,83.698,182.722,84.782,183.763z"/>
				<path style="fill:#747FB3;" d="M85.271,152.831c1.441,0.225,4.24,5.466,1.152,10.794
					C81.765,157.031,84.063,152.642,85.271,152.831z"/>
				<path style="fill:#747FB3;" d="M78.693,168.944c1.823,0.217,5.122,6.631,0.923,13.413
					C74.019,174.338,77.164,168.762,78.693,168.944z"/>
			</g>
			<g>
				<path style="fill:#747FB3;" d="M69.918,106.778c-3.239,14.965-5.887,29.85-5.185,45.297c0.775,17.061,4.541,33.695,4.47,50.876
					c-0.006,1.466,2.268,1.468,2.278,0c0.117-16.553-3.843-32.235-5.155-48.625c-1.309-16.34,3.33-31.467,4.36-47.444
					C70.715,106.444,70.011,106.346,69.918,106.778L69.918,106.778z"/>
				<path style="fill:#747FB3;" d="M70.098,108.904c2.64-2.781,1.613-8.967,0.009-9.079
					C68.504,99.714,66.909,104.254,70.098,108.904z"/>
				<path style="fill:#747FB3;" d="M75.514,112.171c1.023,1.067-0.579,6.928-7.116,9.22
					C69.474,113.316,74.655,111.275,75.514,112.171z"/>
				<path style="fill:#747FB3;" d="M62.208,120.575c1.857,0.018,6.46,5.397,3.685,11.821
					C58.675,125.812,60.651,120.559,62.208,120.575z"/>
				<path style="fill:#747FB3;" d="M58.118,143.804c2.086-0.359,8.758,4.748,7.454,12.535
					C55.631,150.413,56.369,144.105,58.118,143.804z"/>
				<path style="fill:#747FB3;" d="M60.035,172.942c2.266-0.296,9.86,5.318,8.865,13.44
					C57.677,179.782,58.134,173.191,60.035,172.942z"/>
				<path style="fill:#747FB3;" d="M72.474,132.14c-1.941-0.203-7.966,4.807-6.534,11.78
					C74.967,137.978,74.101,132.311,72.474,132.14z"/>
				<path style="fill:#747FB3;" d="M71.491,154.293c-2.161,0.522-7.249,8.197-3.692,15.131
					C75.871,159.605,73.303,153.855,71.491,154.293z"/>
			</g>
		</g>
		<path style="fill:#FFB85A;" d="M81.053,241.07H57.125c-4.163-12.27-6.811-26.193-7.927-41.791H88.98
			C88.046,213.926,85.583,227.931,81.053,241.07z"/>
		<path style="fill:#E89243;" d="M77.949,199.28c-1.426,43.8-18.303,38.174-22.689,35.763c0.588,2.046,1.201,4.066,1.866,6.028
			h23.927c4.53-13.139,6.993-27.145,7.927-41.791H77.949z"/>
		<g>
			<path style="fill:#FFDC85;" d="M58.668,212.481c0.815,7.81-0.104,10.7-1.592,10.855c-1.489,0.155-2.868-1.378-3.799-10.293
				c-0.93-8.915,0.104-10.7,1.592-10.855C56.359,202.032,57.854,204.671,58.668,212.481z"/>
			<path style="fill:#FFDC85;" d="M60.032,228.894c0.346,2.431-0.372,3.411-1.409,3.558c-1.037,0.148-1.951-0.249-2.346-3.024
				c-0.395-2.775,0.372-3.411,1.409-3.558C58.723,225.722,59.686,226.463,60.032,228.894z"/>
		</g>
	</g>
	<g>
		<defs>
			<filter id="Adobe_OpacityMaskFilter" filterUnits="userSpaceOnUse" x="92.607" y="95.168" width="60.049" height="65.802">
				<feColorMatrix  type="matrix" values="1 0 0 0 0  0 1 0 0 0  0 0 1 0 0  0 0 0 1 0"/>
			</filter>
		</defs>
		<mask maskUnits="userSpaceOnUse" x="92.607" y="95.168" width="60.049" height="65.802" id="SVGID_1_">
			<g style="filter:url(#Adobe_OpacityMaskFilter);">
				
					<linearGradient id="SVGID_00000008137177762943712690000011394260972322240392_" gradientUnits="userSpaceOnUse" x1="-236.7267" y1="183.5655" x2="-271.8426" y2="238.5493" gradientTransform="matrix(-0.876 -0.5659 -0.6009 0.8245 27.8669 -190.3488)">
					<stop  offset="0" style="stop-color:#FFFFFF"/>
					<stop  offset="0.2281" style="stop-color:#C4C4C4"/>
					<stop  offset="1" style="stop-color:#000000"/>
				</linearGradient>
				<polygon style="fill:url(#SVGID_00000008137177762943712690000011394260972322240392_);" points="92.607,160.781 
					152.657,160.969 133.604,95.235 112.073,95.168 				"/>
			</g>
		</mask>
		<polygon style="opacity:0.2;mask:url(#SVGID_1_);fill:#FFF8E6;" points="92.607,160.781 152.657,160.969 133.604,95.235 
			112.073,95.168 		"/>
		<g>
			
				<rect x="121.764" y="38.998" transform="matrix(1 0.0036 -0.0036 1 0.2173 -0.4464)" style="fill:#4E4C63;" width="1.95" height="40.929"/>
			<polygon style="fill:#4E4C63;" points="134.306,96.335 110.958,96.234 118.05,74.173 127.296,74.209 			"/>
			<path style="fill:#3D3B4C;" d="M134.306,96.335l-23.348-0.101c18.434-2.993,20.412-17.83,7.092-22.061l9.246,0.036
				L134.306,96.335z"/>
		</g>
	</g>
	<g>
		<rect x="193.484" y="40.068" style="opacity:0.4;fill:#A29FBD;" width="88.865" height="68.716"/>
		<rect x="193.484" y="40.068" style="fill:#F1EDF2;" width="86.497" height="65.871"/>
		<path style="fill:#E7DEE8;" d="M279.982,105.939h-86.497V56.48c0,0-1.663,46.811,44.025,46.811
			c45.688,0,42.472-46.811,42.472-46.811V105.939z"/>
		<g>
			<path style="fill:#A6A2B3;" d="M227.45,79.529h-19.975c-0.228,0-0.413-0.185-0.413-0.413v-2.013c0-0.228,0.185-0.412,0.413-0.412
				h6.47v-7.622h-6.47c-0.228,0-0.413-0.185-0.413-0.413V58.037c0-0.228,0.185-0.413,0.413-0.413h19.975
				c0.228,0,0.413,0.185,0.413,0.413v3.039c0,0.228-0.185,0.413-0.413,0.413c-0.228,0-0.413-0.185-0.413-0.413V58.45h-19.15v9.793
				h6.47c0.228,0,0.413,0.185,0.413,0.413v8.447c0,0.228-0.185,0.413-0.413,0.413h-6.47v1.188h19.15v-4.285
				c0-0.228,0.185-0.412,0.413-0.412c0.228,0,0.413,0.185,0.413,0.412v4.697C227.863,79.344,227.678,79.529,227.45,79.529z"/>
			<path style="fill:#A6A2B3;" d="M268.596,90.7H227.45c-0.228,0-0.413-0.185-0.413-0.413V74.419c0-0.228,0.185-0.413,0.413-0.413
				c0.228,0,0.413,0.185,0.413,0.413v15.456h40.321V77.182c0-0.228,0.185-0.412,0.413-0.412h5.855V59.121h-17.076
				c-0.228,0-0.413-0.185-0.413-0.413v-11.43h-29.099v13.798c0,0.228-0.185,0.413-0.413,0.413c-0.228,0-0.413-0.185-0.413-0.413
				v-14.21c0-0.228,0.185-0.413,0.413-0.413h29.924c0.228,0,0.413,0.185,0.413,0.413v11.43h17.076c0.228,0,0.413,0.185,0.413,0.412
				v18.474c0,0.228-0.185,0.413-0.413,0.413h-5.854v12.693C269.009,90.515,268.824,90.7,268.596,90.7z"/>
			<path style="fill:#A6A2B3;" d="M257.374,90.542c-0.228,0-0.413-0.185-0.413-0.413V70.945c0-0.228,0.185-0.413,0.413-0.413
				c0.228,0,0.413,0.185,0.413,0.413v19.184C257.787,90.357,257.602,90.542,257.374,90.542z"/>
			<path style="fill:#A6A2B3;" d="M257.374,63.857c-0.228,0-0.413-0.185-0.413-0.413v-4.737c0-0.228,0.185-0.412,0.413-0.412
				c0.228,0,0.413,0.185,0.413,0.412v4.737C257.787,63.673,257.602,63.857,257.374,63.857z"/>
			<path style="fill:#A6A2B3;" d="M268.596,77.618c-0.263,0-0.475-0.213-0.475-0.475V64.076c0-0.263,0.212-0.475,0.475-0.475
				c0.262,0,0.475,0.212,0.475,0.475v13.067C269.071,77.406,268.858,77.618,268.596,77.618z"/>
			<path style="fill:#A6A2B3;" d="M268.596,77.618h-3.591c-0.263,0-0.475-0.213-0.475-0.475c0-0.263,0.212-0.475,0.475-0.475h3.591
				c0.262,0,0.475,0.213,0.475,0.475C269.071,77.406,268.858,77.618,268.596,77.618z"/>
			<path style="fill:#A6A2B3;" d="M260.666,77.556h-3.142c-0.228,0-0.413-0.185-0.413-0.413c0-0.228,0.185-0.413,0.413-0.413h3.142
				c0.228,0,0.413,0.185,0.413,0.413C261.078,77.371,260.894,77.556,260.666,77.556z"/>
			<g>
				<path style="fill:#A6A2B3;" d="M274.805,75.238h-6.134c-0.147,0-0.267-0.119-0.267-0.267c0-0.147,0.12-0.267,0.267-0.267h6.134
					c0.147,0,0.267,0.119,0.267,0.267C275.072,75.119,274.952,75.238,274.805,75.238z"/>
				<path style="fill:#A6A2B3;" d="M274.805,73.185h-6.134c-0.147,0-0.267-0.119-0.267-0.267c0-0.147,0.12-0.267,0.267-0.267h6.134
					c0.147,0,0.267,0.119,0.267,0.267C275.072,73.066,274.952,73.185,274.805,73.185z"/>
				<path style="fill:#A6A2B3;" d="M274.805,71.133h-6.134c-0.147,0-0.267-0.119-0.267-0.267s0.12-0.267,0.267-0.267h6.134
					c0.147,0,0.267,0.119,0.267,0.267S274.952,71.133,274.805,71.133z"/>
				<path style="fill:#A6A2B3;" d="M274.805,69.08h-6.134c-0.147,0-0.267-0.119-0.267-0.267s0.12-0.267,0.267-0.267h6.134
					c0.147,0,0.267,0.119,0.267,0.267S274.952,69.08,274.805,69.08z"/>
				<path style="fill:#A6A2B3;" d="M274.805,67.028h-6.134c-0.147,0-0.267-0.12-0.267-0.267c0-0.147,0.12-0.267,0.267-0.267h6.134
					c0.147,0,0.267,0.12,0.267,0.267C275.072,66.908,274.952,67.028,274.805,67.028z"/>
				<path style="fill:#A6A2B3;" d="M274.805,64.975h-6.134c-0.147,0-0.267-0.119-0.267-0.267c0-0.147,0.12-0.267,0.267-0.267h6.134
					c0.147,0,0.267,0.119,0.267,0.267C275.072,64.855,274.952,64.975,274.805,64.975z"/>
			</g>
			<path style="fill:#A6A2B3;" d="M214.541,68.922c-0.147,0-0.267-0.119-0.267-0.267V58.392c0-0.147,0.12-0.267,0.267-0.267
				c0.147,0,0.267,0.119,0.267,0.267v10.263C214.808,68.803,214.689,68.922,214.541,68.922z"/>
			<path style="fill:#A6A2B3;" d="M246.603,54.738h-8.147c-0.147,0-0.267-0.119-0.267-0.267v-3.34c0-0.147,0.12-0.267,0.267-0.267
				h8.147c0.147,0,0.267,0.119,0.267,0.267v3.34C246.87,54.619,246.75,54.738,246.603,54.738z M238.723,54.204h7.613v-2.806h-7.613
				V54.204z"/>
			<rect x="238.665" y="98.385" style="fill:#A6A2B3;" width="4.881" height="2.001"/>
			
				<rect x="196.975" y="67.569" transform="matrix(-1.836970e-16 1 -1 -1.836970e-16 268.0678 -131.0334)" style="fill:#A6A2B3;" width="5.151" height="1.896"/>
			<path style="fill:#A6A2B3;" d="M247.613,61.343h-10.167c-0.147,0-0.267-0.119-0.267-0.267v-4.121
				c0-0.147,0.119-0.267,0.267-0.267h10.167c0.147,0,0.267,0.119,0.267,0.267v4.121C247.879,61.224,247.76,61.343,247.613,61.343z
				 M237.713,60.81h9.633v-3.587h-9.633V60.81z"/>
			<path style="fill:#A6A2B3;" d="M252.448,55.931h-3.905c-0.147,0-0.267-0.12-0.267-0.267v-4.532c0-0.147,0.119-0.267,0.267-0.267
				h3.905c0.147,0,0.267,0.119,0.267,0.267v4.532C252.715,55.811,252.596,55.931,252.448,55.931z M248.81,55.397h3.371v-3.998
				h-3.371V55.397z"/>
			<path style="fill:#A6A2B3;" d="M230.443,61.342h-2.931c-0.146,0-0.265-0.119-0.265-0.265v-14.21c0-0.146,0.119-0.265,0.265-0.265
				h2.931c0.146,0,0.265,0.119,0.265,0.265v14.21C230.708,61.223,230.589,61.342,230.443,61.342z M227.777,60.811h2.401v-13.68
				h-2.401V60.811z"/>
			<g>
				<path style="fill:#A6A2B3;" d="M250.508,61.237c-1.168,0-2.118-0.996-2.118-2.221c0-1.225,0.95-2.221,2.118-2.221
					c1.168,0,2.119,0.996,2.119,2.221C252.626,60.241,251.676,61.237,250.508,61.237z M250.508,57.329
					c-0.874,0-1.585,0.757-1.585,1.687s0.711,1.687,1.585,1.687s1.585-0.757,1.585-1.687S251.381,57.329,250.508,57.329z"/>
				<path style="fill:#A6A2B3;" d="M234.551,61.237c-1.168,0-2.118-0.996-2.118-2.221c0-1.225,0.95-2.221,2.118-2.221
					c1.168,0,2.118,0.996,2.118,2.221C236.669,60.241,235.719,61.237,234.551,61.237z M234.551,57.329
					c-0.874,0-1.585,0.757-1.585,1.687s0.711,1.687,1.585,1.687c0.874,0,1.585-0.757,1.585-1.687S235.425,57.329,234.551,57.329z"/>
			</g>
			<path style="fill:#A6A2B3;" d="M249.295,79.343H227.45c-0.147,0-0.267-0.119-0.267-0.267v-4.895c0-0.147,0.119-0.267,0.267-0.267
				h21.844c0.147,0,0.267,0.119,0.267,0.267v4.895C249.562,79.224,249.442,79.343,249.295,79.343z M227.717,78.81h21.311v-4.361
				h-21.311V78.81z"/>
			<path style="fill:#A6A2B3;" d="M227.469,79.343h-3.535c-0.147,0-0.267-0.119-0.267-0.267v-3.715c0-0.147,0.119-0.267,0.267-0.267
				h3.535c0.147,0,0.267,0.119,0.267,0.267v3.715C227.736,79.224,227.616,79.343,227.469,79.343z M224.201,78.81h3.001v-3.181
				h-3.001V78.81z"/>
			<path style="fill:#A6A2B3;" d="M257.374,83.015h-2.637c-0.147,0-0.267-0.119-0.267-0.267v-2.772c0-0.147,0.119-0.267,0.267-0.267
				h2.637c0.147,0,0.267,0.119,0.267,0.267v2.772C257.641,82.895,257.522,83.015,257.374,83.015z M255.004,82.481h2.103v-2.238
				h-2.103V82.481z"/>
			<path style="fill:#A6A2B3;" d="M232.462,90.554H227.3c-0.147,0-0.267-0.119-0.267-0.267V79.155c0-0.147,0.12-0.267,0.267-0.267
				h5.162c0.147,0,0.267,0.12,0.267,0.267v11.132C232.729,90.435,232.61,90.554,232.462,90.554z M227.567,90.02h4.628V79.422h-4.628
				V90.02z"/>
			<path style="fill:#A6A2B3;" d="M233.061,73.106h-3.067c-0.147,0-0.267-0.119-0.267-0.267v-3.237c0-0.147,0.119-0.267,0.267-0.267
				h3.067c0.147,0,0.267,0.119,0.267,0.267v3.237C233.328,72.987,233.208,73.106,233.061,73.106z M230.26,72.573h2.533V69.87h-2.533
				V72.573z"/>
			<path style="fill:#A6A2B3;" d="M240.205,73.106h-3.067c-0.147,0-0.267-0.119-0.267-0.267v-3.237c0-0.147,0.12-0.267,0.267-0.267
				h3.067c0.147,0,0.267,0.119,0.267,0.267v3.237C240.472,72.987,240.353,73.106,240.205,73.106z M237.405,72.573h2.534V69.87
				h-2.534V72.573z"/>
			<path style="fill:#A6A2B3;" d="M247.35,73.106h-3.067c-0.147,0-0.267-0.119-0.267-0.267v-3.237c0-0.147,0.119-0.267,0.267-0.267
				h3.067c0.147,0,0.267,0.119,0.267,0.267v3.237C247.617,72.987,247.497,73.106,247.35,73.106z M244.549,72.573h2.533V69.87h-2.533
				V72.573z"/>
			<path style="fill:#A6A2B3;" d="M257.374,90.633h-4.414c-0.147,0-0.267-0.119-0.267-0.267v-6.589c0-0.147,0.119-0.267,0.267-0.267
				h4.414c0.147,0,0.267,0.119,0.267,0.267v6.589C257.641,90.513,257.522,90.633,257.374,90.633z M253.227,90.099h3.88v-6.055h-3.88
				V90.099z"/>
			<path style="fill:#A6A2B3;" d="M268.521,90.396h-4.414c-0.147,0-0.267-0.119-0.267-0.267V79.234c0-0.147,0.119-0.267,0.267-0.267
				h4.414c0.147,0,0.267,0.119,0.267,0.267v10.895C268.788,90.276,268.668,90.396,268.521,90.396z M264.374,89.862h3.88V79.501
				h-3.88V89.862z"/>
			<path style="fill:#A6A2B3;" d="M261.526,90.514h-4.152c-0.147,0-0.267-0.119-0.267-0.267v-4.382c0-0.147,0.12-0.267,0.267-0.267
				h4.152c0.147,0,0.267,0.119,0.267,0.267v4.382C261.793,90.395,261.674,90.514,261.526,90.514z M257.641,89.981h3.618v-3.848
				h-3.618V89.981z"/>
			<path style="fill:#A6A2B3;" d="M260.217,77.41h-2.693c-0.147,0-0.267-0.119-0.267-0.267v-5.764c0-0.147,0.119-0.267,0.267-0.267
				h2.693c0.147,0,0.267,0.119,0.267,0.267v5.764C260.484,77.291,260.364,77.41,260.217,77.41z M257.791,76.876h2.159v-5.23h-2.159
				V76.876z"/>
			<path style="fill:#A6A2B3;" d="M268.596,77.41h-1.945c-0.147,0-0.267-0.119-0.267-0.267v-9.159c0-0.147,0.12-0.267,0.267-0.267
				h1.945c0.147,0,0.267,0.119,0.267,0.267v9.159C268.863,77.291,268.743,77.41,268.596,77.41z M266.918,76.876h1.411v-8.625h-1.411
				V76.876z"/>
			<path style="fill:#A6A2B3;" d="M264.444,62.567h-7.144c-0.147,0-0.267-0.119-0.267-0.267v-3.553c0-0.147,0.12-0.267,0.267-0.267
				h7.144c0.147,0,0.267,0.119,0.267,0.267V62.3C264.711,62.447,264.591,62.567,264.444,62.567z M257.566,62.033h6.611v-3.019
				h-6.611V62.033z"/>
			<g>
				<path style="fill:#A6A2B3;" d="M227.45,73.545c-0.147,0-0.267-0.119-0.267-0.267V70.91c0-0.147,0.119-0.267,0.267-0.267
					c0.147,0,0.267,0.119,0.267,0.267v2.368C227.717,73.425,227.598,73.545,227.45,73.545z"/>
				<path style="fill:#A6A2B3;" d="M227.45,69.282c-0.147,0-0.267-0.119-0.267-0.267v-2.368c0-0.147,0.119-0.267,0.267-0.267
					c0.147,0,0.267,0.119,0.267,0.267v2.368C227.717,69.162,227.598,69.282,227.45,69.282z"/>
				<path style="fill:#A6A2B3;" d="M227.45,65.019c-0.147,0-0.267-0.119-0.267-0.267v-2.368c0-0.147,0.119-0.267,0.267-0.267
					c0.147,0,0.267,0.119,0.267,0.267v2.368C227.717,64.899,227.598,65.019,227.45,65.019z"/>
			</g>
			<path style="fill:#A6A2B3;" d="M207.438,96.601c-0.042,0-0.083-0.017-0.113-0.047c-0.03-0.03-0.047-0.071-0.047-0.113l0-17.257
				c0-0.088,0.072-0.16,0.16-0.16c0.089,0,0.16,0.072,0.16,0.16l0,17.097l67.01-0.155V77.14c0-0.088,0.072-0.16,0.16-0.16
				c0.088,0,0.16,0.072,0.16,0.16v19.104c0.004,0.015,0.006,0.031,0.005,0.047l-0.005,0.155c-0.003,0.087-0.074,0.155-0.16,0.155
				c-0.001,0-0.002,0-0.003,0c-0.086-0.001-0.155-0.07-0.157-0.155L207.438,96.601L207.438,96.601z"/>
			<path style="fill:#A6A2B3;" d="M227.3,90.329h-24.688c-0.088,0-0.16-0.072-0.16-0.16V46.866c0-0.088,0.072-0.16,0.16-0.16h24.899
				c0.088,0,0.16,0.072,0.16,0.16c0,0.088-0.072,0.16-0.16,0.16h-24.739v42.982H227.3c0.088,0,0.16,0.072,0.16,0.16
				C227.461,90.257,227.389,90.329,227.3,90.329z"/>
			<rect x="219.483" y="67.314" style="fill:#A6A2B3;" width="1.683" height="1.776"/>
			<rect x="241.702" y="83.538" style="fill:#A6A2B3;" width="1.683" height="1.776"/>
			<rect x="265.099" y="66.9" style="fill:#A6A2B3;" width="1.683" height="1.776"/>
			<rect x="241.688" y="58.137" style="fill:#A6A2B3;" width="1.683" height="1.776"/>
			<rect x="262.293" y="82.65" style="fill:#A6A2B3;" width="1.683" height="1.776"/>
		</g>
		<g>
			<circle style="fill:#403D51;" cx="196.933" cy="43.355" r="1.508"/>
			<path style="fill:#403D51;" d="M278.04,43.355c0,0.833-0.675,1.508-1.508,1.508c-0.833,0-1.508-0.675-1.508-1.508
				s0.675-1.508,1.508-1.508C277.366,41.847,278.04,42.522,278.04,43.355z"/>
		</g>
	</g>
	<g>
		<rect x="287.29" y="94.44" style="opacity:0.4;fill:#A29FBD;" width="71.79" height="55.513"/>
		<rect x="287.29" y="94.44" style="fill:#F1EDF2;" width="69.877" height="53.214"/>
		<path style="fill:#E7DEE8;" d="M357.167,147.654H287.29v-39.955c0,0-1.344,37.816,35.566,37.816s34.311-37.816,34.311-37.816
			V147.654z"/>
		<g>
			<circle style="fill:#403D51;" cx="290.076" cy="97.095" r="1.218"/>
			<circle style="fill:#403D51;" cx="354.381" cy="97.095" r="1.218"/>
		</g>
		<g>
			<path style="fill:#A6A2B3;" d="M331.252,126.058h15.434c0.15,0,0.271-0.121,0.271-0.271v-7.775c0-0.15-0.121-0.271-0.271-0.271
				h-5.047v-5.643h0.858c0.15,0,0.271-0.121,0.271-0.271v-1.474c0-0.15-0.121-0.271-0.271-0.271h-11.246
				c-0.15,0-0.271,0.121-0.271,0.271v3.439c0,0.15,0.121,0.271,0.271,0.271c0.15,0,0.271-0.121,0.271-0.271v-3.169h10.704v0.932
				h-0.858c-0.15,0-0.271,0.121-0.271,0.271v6.185c0,0.15,0.121,0.271,0.271,0.271h5.047v7.233h-14.892v-1.955
				c0-0.15-0.121-0.271-0.271-0.271c-0.15,0-0.271,0.121-0.271,0.271v2.226C330.981,125.937,331.102,126.058,331.252,126.058z"/>
			<path style="fill:#A6A2B3;" d="M308.13,134.238h23.122c0.15,0,0.271-0.121,0.271-0.271v-10.405c0-0.15-0.121-0.271-0.271-0.271
				c-0.15,0-0.271,0.121-0.271,0.271v10.134h-22.58v-8.4c0-0.15-0.121-0.271-0.271-0.271h-13.243V112.04l-0.111-9.596h36.205v11.348
				c0,0.15,0.121,0.271,0.271,0.271c0.15,0,0.271-0.121,0.271-0.271v-11.619c0-0.15-0.121-0.271-0.271-0.271h-36.746
				c-0.15,0-0.271,0.121-0.271,0.271c0,0,0.111,9.446,0.111,9.596v13.527c0,0.15,0.121,0.271,0.271,0.271h13.243v8.4
				C307.859,134.117,307.98,134.238,308.13,134.238z"/>
			<path style="fill:#A6A2B3;" d="M308.13,116.607c0.15,0,0.271-0.121,0.271-0.271V102.29c0-0.15-0.121-0.271-0.271-0.271
				c-0.15,0-0.271,0.121-0.271,0.271v14.047C307.859,116.486,307.98,116.607,308.13,116.607z"/>
			<path style="fill:#A6A2B3;" d="M308.13,125.567c0.15,0,0.271-0.121,0.271-0.271v-3.468c0-0.15-0.121-0.271-0.271-0.271
				c-0.15,0-0.271,0.121-0.271,0.271v3.468C307.859,125.446,307.98,125.567,308.13,125.567z"/>
			<path style="fill:#A6A2B3;" d="M305.873,112.069h2.363c0.027,0,0.049-0.121,0.049-0.271c0-0.15-0.022-0.271-0.049-0.271h-2.363
				c-0.027,0-0.049,0.121-0.049,0.271C305.824,111.948,305.846,112.069,305.873,112.069z"/>
			<path style="fill:#A6A2B3;" d="M294.704,112.069h6.687c0.077,0,0.138-0.121,0.138-0.271c0-0.15-0.062-0.271-0.138-0.271h-6.687
				c-0.077,0-0.138,0.121-0.138,0.271C294.566,111.948,294.628,112.069,294.704,112.069z"/>
			<path style="fill:#A6A2B3;" d="M341.227,125.721c0.107,0,0.194-0.087,0.194-0.194v-7.515c0-0.107-0.087-0.194-0.194-0.194
				s-0.194,0.087-0.194,0.194v7.515C341.033,125.634,341.12,125.721,341.227,125.721z"/>
			<path style="fill:#A6A2B3;" d="M315.302,132.431v-2.445c0-0.107,0.087-0.194,0.194-0.194h6.295c0.107,0,0.194,0.087,0.194,0.194
				v2.445c0,0.107-0.087,0.194-0.194,0.194h-6.295C315.389,132.625,315.302,132.538,315.302,132.431z M321.597,130.18h-5.907v2.058
				h5.907V130.18z"/>
			
				<rect x="318.814" y="138.725" transform="matrix(-1 -1.224647e-16 1.224647e-16 -1 641.4006 278.9159)" style="fill:#A6A2B3;" width="3.772" height="1.465"/>
			
				<rect x="350.924" y="117.381" transform="matrix(6.123234e-17 -1 1 6.123234e-17 234.6955 470.9233)" style="fill:#A6A2B3;" width="3.772" height="1.465"/>
			<path style="fill:#A6A2B3;" d="M314.522,126.58v-3.018c0-0.107,0.087-0.194,0.194-0.194h7.855c0.107,0,0.194,0.087,0.194,0.194
				v3.018c0,0.107-0.087,0.194-0.194,0.194h-7.855C314.609,126.773,314.522,126.687,314.522,126.58z M322.377,123.756h-7.468v2.631
				h7.468V123.756z"/>
			<path style="fill:#A6A2B3;" d="M310.106,129.601v-3.018c0-0.107,0.087-0.194,0.194-0.194h2.98c0.107,0,0.194,0.087,0.194,0.194
				v3.018c0,0.107-0.087,0.194-0.194,0.194h-2.98C310.193,129.795,310.106,129.708,310.106,129.601z M313.086,126.777h-2.592v2.631
				h2.592V126.777z"/>
			<path style="fill:#A6A2B3;" d="M323.785,129.601v-3.018c0-0.107,0.087-0.194,0.194-0.194h2.98c0.107,0,0.194,0.087,0.194,0.194
				v3.018c0,0.107-0.087,0.194-0.194,0.194h-2.98C323.872,129.795,323.785,129.708,323.785,129.601z M326.765,126.777h-2.592v2.631
				h2.592V126.777z"/>
			<path style="fill:#A6A2B3;" d="M328.748,133.967v-10.405c0-0.106,0.086-0.192,0.192-0.192h2.264c0.106,0,0.192,0.086,0.192,0.192
				v10.405c0,0.106-0.086,0.192-0.192,0.192h-2.264C328.834,134.159,328.748,134.073,328.748,133.967z M331.012,123.754h-1.88
				v10.021h1.88V123.754z"/>
			<path style="fill:#A6A2B3;" d="M314.179,113.966v-3.584c0-0.107,0.087-0.194,0.194-0.194h16.879c0.107,0,0.194,0.087,0.194,0.194
				v3.584c0,0.107-0.087,0.194-0.194,0.194h-16.879C314.266,114.16,314.179,114.073,314.179,113.966z M331.058,110.576h-16.492
				v3.197h16.492V110.576z"/>
			<path style="fill:#A6A2B3;" d="M331.044,113.103v-2.72c0-0.107,0.087-0.194,0.194-0.194h2.731c0.107,0,0.194,0.087,0.194,0.194
				v2.72c0,0.107-0.087,0.194-0.194,0.194h-2.731C331.131,113.297,331.044,113.21,331.044,113.103z M333.775,110.576h-2.344v2.333
				h2.344V110.576z"/>
			<path style="fill:#A6A2B3;" d="M307.936,104.245v-2.03c0-0.107,0.087-0.194,0.194-0.194h2.037c0.107,0,0.194,0.087,0.194,0.194
				v2.03c0,0.107-0.087,0.194-0.194,0.194h-2.037C308.023,104.438,307.936,104.352,307.936,104.245z M309.974,102.409h-1.65v1.642
				h1.65V102.409z"/>
			<path style="fill:#A6A2B3;" d="M327.185,110.325v-8.151c0-0.107,0.087-0.194,0.194-0.194h3.989c0.107,0,0.194,0.087,0.194,0.194
				v8.151c0,0.107-0.087,0.194-0.194,0.194h-3.989C327.272,110.519,327.185,110.432,327.185,110.325z M331.174,102.368h-3.601v7.763
				h3.601V102.368z"/>
			<path style="fill:#A6A2B3;" d="M323.754,106.941v-4.824c0-0.107,0.087-0.194,0.194-0.194h3.41c0.107,0,0.194,0.087,0.194,0.194
				v4.824c0,0.107-0.087,0.194-0.194,0.194h-3.41C323.841,107.134,323.754,107.047,323.754,106.941z M327.164,102.31h-3.022v4.437
				h3.022V102.31z"/>
			<path style="fill:#A6A2B3;" d="M294.369,110.267v-7.977c0-0.107,0.087-0.194,0.194-0.194h3.411c0.107,0,0.194,0.087,0.194,0.194
				v7.977c0,0.107-0.087,0.194-0.194,0.194h-3.411C294.456,110.46,294.369,110.373,294.369,110.267z M297.78,102.483h-3.023v7.59
				h3.023V102.483z"/>
			<path style="fill:#A6A2B3;" d="M294.481,116.019v-4.22c0-0.107,0.087-0.194,0.194-0.194h2.081c0.107,0,0.194,0.087,0.194,0.194
				v4.22c0,0.107-0.087,0.194-0.194,0.194h-2.081C294.568,116.212,294.481,116.125,294.481,116.019z M296.562,111.992h-1.694v3.833
				h1.694V111.992z"/>
			<path style="fill:#A6A2B3;" d="M302.473,125.268v-2.602c0-0.107,0.087-0.194,0.194-0.194h5.521c0.107,0,0.194,0.087,0.194,0.194
				v2.602c0,0.107-0.087,0.194-0.194,0.194h-5.521C302.56,125.461,302.473,125.374,302.473,125.268z M307.994,122.86h-5.133v2.214
				h5.133V122.86z"/>
			<g>
				<path style="fill:#A6A2B3;" d="M331.252,116.556c0.107,0,0.194-0.087,0.194-0.194v-1.734c0-0.107-0.087-0.194-0.194-0.194
					s-0.194,0.087-0.194,0.194v1.734C331.058,116.469,331.145,116.556,331.252,116.556z"/>
				<path style="fill:#A6A2B3;" d="M331.252,119.677c0.107,0,0.194-0.087,0.194-0.194v-1.734c0-0.107-0.087-0.194-0.194-0.194
					s-0.194,0.087-0.194,0.194v1.734C331.058,119.59,331.145,119.677,331.252,119.677z"/>
				<path style="fill:#A6A2B3;" d="M331.252,122.799c0.107,0,0.194-0.087,0.194-0.194v-1.734c0-0.107-0.087-0.194-0.194-0.194
					s-0.194,0.087-0.194,0.194v1.734C331.058,122.712,331.145,122.799,331.252,122.799z"/>
			</g>
			<path style="fill:#A6A2B3;" d="M294.685,137.521L294.685,137.521l52.03-0.114c0.064-0.001,0.116-0.052,0.116-0.117l-0.001-11.272
				c0-0.064-0.052-0.117-0.117-0.117l0,0c-0.064,0-0.117,0.052-0.117,0.117l0.001,11.156l-51.793,0.113l0.001-11.992
				c0-0.064-0.052-0.117-0.117-0.117s-0.117,0.052-0.117,0.117L294.57,137.4c-0.002,0.032,0.01,0.062,0.032,0.085
				C294.624,137.508,294.654,137.521,294.685,137.521z"/>
			<path style="fill:#A6A2B3;" d="M331.204,134.084h19.239c0.064,0,0.117-0.052,0.117-0.117v-31.706
				c0-0.064-0.052-0.117-0.117-0.117h-19.076c-0.064,0-0.116,0.052-0.116,0.117s0.052,0.117,0.116,0.117h18.959v31.473h-19.122
				c-0.064,0-0.117,0.052-0.117,0.117S331.14,134.084,331.204,134.084z"/>
			
				<rect x="336.107" y="117.694" transform="matrix(-1 -1.224647e-16 1.224647e-16 -1 673.5156 236.689)" style="fill:#A6A2B3;" width="1.301" height="1.301"/>
			
				<rect x="318.939" y="105.815" transform="matrix(-1 -1.224647e-16 1.224647e-16 -1 639.1792 212.931)" style="fill:#A6A2B3;" width="1.301" height="1.301"/>
			
				<rect x="300.87" y="117.637" transform="matrix(-1 -1.224647e-16 1.224647e-16 -1 603.0396 236.5738)" style="fill:#A6A2B3;" width="1.301" height="1.301"/>
			
				<rect x="317.993" y="124.414" transform="matrix(-1 -1.224647e-16 1.224647e-16 -1 637.2865 250.1288)" style="fill:#A6A2B3;" width="1.301" height="1.301"/>
			
				<rect x="298.075" y="106.465" transform="matrix(-1 -1.224647e-16 1.224647e-16 -1 597.4498 214.2316)" style="fill:#A6A2B3;" width="1.301" height="1.301"/>
		</g>
	</g>
	<g>
		<g>
			<defs>
				
					<filter id="Adobe_OpacityMaskFilter_00000045609664865572292170000006496065198459451035_" filterUnits="userSpaceOnUse" x="186.197" y="160.266" width="70.623" height="80.195">
					<feColorMatrix  type="matrix" values="1 0 0 0 0  0 1 0 0 0  0 0 1 0 0  0 0 0 1 0"/>
				</filter>
			</defs>
			
				<mask maskUnits="userSpaceOnUse" x="186.197" y="160.266" width="70.623" height="80.195" id="SVGID_00000063625763464491210050000004685162553017344385_">
				<g style="filter:url(#Adobe_OpacityMaskFilter_00000045609664865572292170000006496065198459451035_);">
					
						<linearGradient id="SVGID_00000101092210702237028960000000404744595718982074_" gradientUnits="userSpaceOnUse" x1="245.9367" y1="165.1167" x2="207.2898" y2="225.6292">
						<stop  offset="0" style="stop-color:#FFFFFF"/>
						<stop  offset="0.2281" style="stop-color:#C4C4C4"/>
						<stop  offset="1" style="stop-color:#000000"/>
					</linearGradient>
					<polygon style="fill:url(#SVGID_00000101092210702237028960000000404744595718982074_);" points="227.35,240.461 
						186.197,212.413 238.342,160.266 256.82,172.861 					"/>
				</g>
			</mask>
			<polygon style="mask:url(#SVGID_00000063625763464491210050000004685162553017344385_);fill:#FFF3D2;" points="227.35,240.461 
				186.197,212.413 238.342,160.266 256.82,172.861 			"/>
			<path style="fill:#3D3B4C;" d="M309.75,232.533c-0.575,0-1.086-0.41-1.193-0.996l-11.91-65.154l-32.96-21.718
				c-0.56-0.369-0.714-1.122-0.346-1.682c0.368-0.56,1.122-0.716,1.682-0.346l33.393,22.003c0.276,0.182,0.467,0.47,0.526,0.796
				l12.004,65.664c0.12,0.659-0.317,1.292-0.977,1.413C309.896,232.526,309.822,232.533,309.75,232.533z"/>
			<path style="fill:#3D3B4C;" d="M266.045,148.149l-7.608-5.077l2.826-4.234c0.428-0.642,1.295-0.814,1.937-0.386l5.284,3.527
				c0.641,0.428,0.814,1.295,0.386,1.937L266.045,148.149z"/>
			<circle style="fill:#3D3B4C;" cx="297.057" cy="166" r="3.193"/>
			<path style="fill:#4E4C63;" d="M265.076,146.768l-5.054-3.5c-2.028-1.404-4.78-1.111-6.465,0.691l-15.56,16.627l18.617,12.891
				l10.09-20.415C267.797,150.851,267.104,148.172,265.076,146.768z"/>
			<path style="fill:#3D3B4C;" d="M265.076,146.768l-5.054-3.5c-0.987-0.684-2.145-0.958-3.268-0.858
				c2.467,0.422,6.199,3.48,3.997,7.935l-10.762,18.502l6.626,4.63l10.09-20.415C267.797,150.851,267.104,148.172,265.076,146.768z"
				/>
			<path style="fill:#4E4C63;" d="M298.826,166c0,0.977-0.792,1.769-1.769,1.769s-1.769-0.792-1.769-1.769
				c0-0.977,0.792-1.769,1.769-1.769S298.826,165.023,298.826,166z"/>
			<path style="fill:#868599;" d="M241.747,159.549l11.562-12.598C253.309,146.951,254.863,160.067,241.747,159.549z"/>
		</g>
		<g>
			<g>
				<path style="fill:#E7DEE8;" d="M317.142,228.342c-3.13-1.419-29.233,1.702-44.245,1.857v9.595c0,0,36.731,0.128,42.147-0.181
					L317.142,228.342z"/>
				<path style="fill:#C9BCCC;" d="M319.567,232.366c0,0,0.366-3.095-2.425-4.024c-2.792-0.929-5.298,2.012-5.981,4.798
					c-0.683,2.786,0.119,5.61,2.964,6.345C317.815,240.439,322.122,234.997,319.567,232.366z"/>
				<path style="fill:#E7DEE8;" d="M315.288,239.656c-0.368,0-0.764-0.029-1.193-0.091c-1.156-0.164-2.155-0.8-2.815-1.79
					c-0.848-1.273-1.057-2.963-0.59-4.758c0.523-2.014,1.663-3.626,3.126-4.423c1.085-0.59,2.284-0.698,3.467-0.307
					c2.356,0.776,2.846,2.863,2.779,3.984c0.946,1.96,0.663,4.131-0.738,5.567C318.265,238.924,317.133,239.655,315.288,239.656z
					 M315.879,229.026c-0.548,0-1.082,0.141-1.597,0.422c-1.228,0.669-2.194,2.059-2.651,3.814
					c-0.391,1.502-0.223,2.951,0.458,3.975c0.504,0.756,1.265,1.242,2.143,1.367c2.186,0.311,3.303-0.322,4.397-1.445
					c1.153-1.18,1.346-2.932,0.506-4.571c-0.426-0.83-1.432-1.354-2.352-1.215c-1.054,0.158-1.788,1.113-2.067,2.69
					c-0.037,0.274-0.057,1.129,0.319,1.569c0.166,0.194,0.401,0.291,0.72,0.298c0.695,0.001,0.913-0.518,0.965-0.682
					c0.094-0.298,0.068-0.682-0.206-0.867c-0.223-0.15-0.282-0.452-0.131-0.675c0.149-0.222,0.451-0.283,0.674-0.13
					c0.598,0.403,0.835,1.194,0.589,1.967c-0.268,0.845-1.01,1.392-1.911,1.359c-0.597-0.012-1.095-0.234-1.441-0.641
					c-0.723-0.85-0.558-2.199-0.537-2.349c0.505-2.844,2.184-3.394,2.883-3.499c0.774-0.116,1.573,0.081,2.229,0.503
					c-0.254-0.642-0.786-1.34-1.89-1.704C316.607,229.087,316.24,229.026,315.879,229.026z"/>
				<path style="fill:#C9BCCC;" d="M307.894,228.144c-9.767,0.503-24.894,1.951-34.997,2.055v9.595c0,0,30.374,0.106,39.953-0.107
					C307.627,237.943,307.238,230.76,307.894,228.144z"/>
			</g>
			<g>
				<path style="fill:#F1EDF2;" d="M222.333,215.722c12.037-0.777,20.52,2.918,35.464,3.085c13.461,0.15,29.639-3.991,42.022-2.977
					l-0.777,23.944h-76.234c0,0-6.04-2.697-6.558-11.498C216.008,224.18,217.802,218.181,222.333,215.722z"/>
				<path style="fill:#E0D9E2;" d="M258.443,229.312c-16.313,0-32.422,4.918-41.741,2.071c1.359,6.342,6.105,8.392,6.105,8.392
					h76.234l0.201-8.392C287.824,234.878,272.292,229.312,258.443,229.312z"/>
				<path style="fill:#D2C7D4;" d="M303.499,223.061c0,0,1.708-5.963-2.681-7.105c-4.388-1.142-10.953,3.426-11.775,11.038
					c-0.822,7.613,3.041,12.434,9.527,12.307C305.055,239.174,309.659,230.166,303.499,223.061z"/>
				<path style="fill:#F1EDF2;" d="M297.963,239.9c-2.46,0-4.727-0.94-6.44-2.685c-2.329-2.372-3.415-6.019-3.057-10.27
					c0.43-5.104,2.741-7.883,4.605-9.315c2.121-1.631,4.812-2.351,7.195-1.928c1.531,0.272,2.714,1.051,3.421,2.254
					c0.93,1.581,0.836,3.514,0.455,4.783c0.218,0.242,0.425,0.503,0.622,0.781c2.23,3.158,2.336,7.727,1.897,9.472
					c-0.757,3.009-2.356,6.511-8.053,6.887C298.392,239.893,298.176,239.9,297.963,239.9z M298.882,216.74
					c-1.747,0-3.586,0.64-5.105,1.808c-1.678,1.291-3.762,3.812-4.157,8.495c-0.329,3.909,0.64,7.234,2.73,9.361
					c1.622,1.652,3.812,2.473,6.182,2.319c4.922-0.325,6.304-3.222,7.006-6.014c0.381-1.516,0.269-5.705-1.72-8.522
					c-1.122-1.589-2.66-2.488-4.572-2.67c-2.338-0.228-3.784,0.867-4.582,1.82c-1.503,1.798-2.051,4.656-1.363,7.112
					c0.62,2.213,2.56,4.48,5.346,4.239c2.464-0.216,3.984-1.944,3.873-4.402c-0.114-2.518-1.349-4.021-3.305-4.021
					c-1.255,0-1.916,0.56-2.249,1.03c-0.445,0.627-0.565,1.467-0.311,2.192c0.32,0.915,1.026,1.214,1.545,1.095
					c0.159-0.035,0.675-0.201,0.611-0.871c-0.03-0.318,0.203-0.601,0.521-0.632c0.321-0.03,0.601,0.203,0.631,0.521
					c0.099,1.043-0.51,1.891-1.516,2.112c-1.003,0.214-2.334-0.264-2.886-1.844c-0.375-1.073-0.199-2.316,0.46-3.244
					c0.694-0.978,1.828-1.517,3.193-1.517c2.609,0,4.318,1.964,4.461,5.126c0.139,3.083-1.841,5.337-4.928,5.606
					c-2.957,0.255-5.651-1.829-6.562-5.079c-0.786-2.807-0.147-6.089,1.59-8.166c0.976-1.167,2.736-2.494,5.58-2.23
					c1.461,0.139,2.737,0.631,3.815,1.467c0.18-0.988,0.133-2.244-0.481-3.29c-0.537-0.915-1.421-1.487-2.625-1.701
					C299.678,216.774,299.282,216.74,298.882,216.74z"/>
				<g>
					<path style="fill:#D2C7D4;" d="M284.547,216.375c-0.507,0.054-1.015,0.11-1.525,0.168c-1.922,2.271-4.043,6.095-3.975,11.868
						c0.067,5.708,1.82,9.248,3.561,11.363h1.35c-1.774-1.861-3.853-5.326-3.924-11.374
						C279.961,222.208,282.612,218.356,284.547,216.375z"/>
					<path style="fill:#D2C7D4;" d="M231.206,215.885c-0.442-0.041-0.885-0.078-1.331-0.111c-2.063,2.129-4.747,6.153-4.671,12.637
						c0.067,5.708,1.82,9.248,3.561,11.363h1.351c-1.774-1.861-3.853-5.326-3.924-11.374
						C226.112,221.651,229.268,217.682,231.206,215.885z"/>
				</g>
			</g>
		</g>
		<g>
			<path style="fill:#ADAFB8;" d="M189.802,239.105c8.974-0.173,25.8-2.782,36.284-10.16c0,0,0.513-3.824-0.518-7.766
				c-1.1-4.206-2.968-5.399-2.968-5.399l-33.424,2.423L189.802,239.105z"/>
			<path style="fill:#ADAFB8;" d="M184.712,173.7c5.565,1.424,9.609,18.678,12.768,29.373c3.159,10.695,10.022,32.873-3.492,34.803
				c-11.778,1.683-12.83-13.192-16.972-28.659C172.873,193.751,169,169.681,184.712,173.7z"/>
			<path style="fill:#CBCCD5;" d="M189.665,240.465h-55.893c0,0,0.161-1.745-0.314-20.983c-0.512-20.766-1.979-41.628,2.847-46.501
				c2.729-2.755,8.263-4.303,13.89-5.167c6.43-0.988,13.857-0.574,16.483-0.56c5.543,0.03,16.395,2.808,21.227,8.945
				c4.838,6.145,1.582,28.892,1.838,43.785C190.029,236.719,189.665,240.465,189.665,240.465z"/>
			<path style="fill:#EFF0F5;" d="M167.972,180.431c7.009-0.324,10.649-4.735,12.511-9.772c-4.836-2.301-10.351-3.386-13.805-3.405
				c-2.626-0.014-10.053-0.428-16.483,0.56c-0.869,0.133-1.736,0.283-2.591,0.451C148.218,170.109,152.548,181.142,167.972,180.431z
				"/>
			<path style="fill:#ADAFB8;" d="M190.622,185.345c-0.647,14.918-10.225,21.844-23.686,21.844
				c-14.837,0-23.297-6.393-28.216-13.053c0.126,6-5.422,18.879-5.263,25.346c0.474,19.238,0.314,20.983,0.314,20.983h55.893
				c0,0,0.47-3.747,0.183-20.481C189.764,215.134,191.399,192.138,190.622,185.345z"/>
			<path style="fill:#936466;" d="M155.177,117.454c0,0,6.481-12.169,21.682-6.947c13.26,4.555,17.88,11.492,23.325,8.127
				c0,0,2.997,9.47-6.992,12.94c0,0,0.086,4.842-4.981,6.742c-2.015,0.755-14.411,6.949-14.411,6.949l-13.22,10.771
				c0,0-8.121-3.63-11.072-15.082C146.405,128.913,149.493,117.71,155.177,117.454z"/>
			<path style="fill:#80565A;" d="M149.404,123.581c-0.307,2.878-0.309,10.883,4.595,12.139c6.81,1.745,6.853-7.65,9.827-9.675
				c1.739-1.184,2.924-0.41,3.413,0.057c1.584-5.25,6.19-6.308,12.65-4.183c6.428,2.115,7.66,6.236,12.983,6.387
				c8.434,0.239,7.312-9.673,7.312-9.673s2.997,9.471-6.992,12.94c0,0,0.085,4.842-4.981,6.742
				c-0.645,0.242-2.355,1.042-4.379,2.016c-5.875-1.551-13.832-4.5-15.829-9.085l-0.586,19.218l-6.837,5.57
				c0,0-8.121-3.63-11.072-15.082C147.806,134.351,147.975,128.013,149.404,123.581z"/>
			
				<linearGradient id="SVGID_00000137092511723704050070000008542690978698011547_" gradientUnits="userSpaceOnUse" x1="164.0027" y1="177.4903" x2="164.0027" y2="152.2794">
				<stop  offset="0" style="stop-color:#FFB8A8"/>
				<stop  offset="1" style="stop-color:#FF9696"/>
			</linearGradient>
			<path style="fill:url(#SVGID_00000137092511723704050070000008542690978698011547_);" d="M174.961,168.308
				c-0.021-0.014-1.318-2.405-0.777-5.113c0.518-2.589,2.209-3.647,2.209-3.647l-14.758-13.148l-3.328,2.514
				c0,0,0.518,4.832-0.777,10.527c-1.13,4.973-3.489,7.242-4.185,7.831c-2.006,0.259-3.15,0.539-3.15,0.539
				s4.58,10.111,16.653,9.664c9.319-0.345,10.958-8.004,10.958-8.004S176.169,168.868,174.961,168.308z"/>
			<path style="fill:#D37A85;" d="M174.185,163.195c0.518-2.589,2.209-3.647,2.209-3.647l-13.61-12.125l-1.879-0.47l-2.596,1.962
				c0,0,0.518,4.832-0.777,10.527c-1.13,4.973-3.489,7.242-4.185,7.831c-2.006,0.259-3.15,0.539-3.15,0.539s2.177,4.802,7.482,7.641
				c10.317-2.701,15.489-7.32,16.725-8.558C174.124,165.945,173.9,164.62,174.185,163.195z"/>
			
				<linearGradient id="SVGID_00000107582064021812678430000006484699820385446833_" gradientUnits="userSpaceOnUse" x1="27.4188" y1="162.412" x2="17.5426" y2="97.4371" gradientTransform="matrix(-0.9988 0.0499 0.0499 0.9988 188.0176 3.5625)">
				<stop  offset="0" style="stop-color:#FFB8A8"/>
				<stop  offset="1" style="stop-color:#FF9696"/>
			</linearGradient>
			<path style="fill:url(#SVGID_00000107582064021812678430000006484699820385446833_);" d="M159.09,139.234
				c0.988,0.993,0.947,3.637,2.72,3.652c2.186,0.019,0.944-7.708,4.604-13.728c1.454-2.391,5.387-6.305,12.329-5.15
				c8.671,1.443,10.004,6.223,10.5,10.941c0.232,2.206,0.327,6.821-2.07,14.904c-2.855,9.628-7.565,15.338-11.495,15.951
				c-2.623,0.409-4.811-0.179-6.914-1.586c-3.592-2.402-7.708-6.478-9.488-14.988c-4.48-0.372-6.21-3.839-5.769-6.699
				C153.963,139.581,156.32,137.186,159.09,139.234z"/>
			<path style="fill:#D37A85;" d="M159.159,143.481c0.267,1.559-0.361,2.967-1.403,3.145c-1.041,0.178-2.102-0.941-2.368-2.5
				c-0.267-1.559,0.361-2.967,1.403-3.145C157.832,140.803,158.893,141.922,159.159,143.481z"/>
			<g>
				<path style="fill:#634A64;" d="M168.483,139.605c0,0-0.054,0.579,0.273,1.386c0.181,0.384,0.412,0.866,0.833,1.254
					c0.413,0.388,0.956,0.722,1.552,0.905c0.367,0.078,0.535,0.091,0.931,0.089c0.333-0.011,0.625-0.074,0.911-0.164
					c0.572-0.182,0.966-0.581,1.262-0.892c0.569-0.679,0.659-1.258,0.659-1.258s-0.428,0.385-1.081,0.758
					c-0.315,0.203-0.722,0.334-1.12,0.423c-0.198,0.041-0.42,0.063-0.614,0.048c-0.131,0.001-0.496-0.069-0.646-0.125
					c-0.885-0.175-1.616-0.823-2.133-1.38C168.796,140.082,168.483,139.605,168.483,139.605z"/>
			</g>
			<g>
				<path style="fill:#634A64;" d="M187.274,144.024c0,0-0.364,0.344-0.911,0.652c-0.262,0.171-0.602,0.258-0.922,0.319
					c-0.161,0.035-0.332,0.037-0.505,0.022c-0.208-0.027-0.29-0.044-0.531-0.129c-0.202-0.054-0.293-0.087-0.475-0.18
					c-0.159-0.084-0.308-0.191-0.446-0.309c-0.27-0.24-0.564-0.477-0.761-0.735c-0.431-0.492-0.727-0.886-0.727-0.886
					s-0.07,0.496,0.158,1.203c0.134,0.336,0.287,0.768,0.623,1.13c0.166,0.18,0.357,0.357,0.577,0.511
					c0.196,0.145,0.52,0.307,0.753,0.383c0.193,0.048,0.564,0.102,0.803,0.089c0.274-0.008,0.547-0.048,0.794-0.132
					c0.506-0.161,0.851-0.521,1.094-0.804C187.26,144.536,187.274,144.024,187.274,144.024z"/>
			</g>
			<g>
				<path style="fill:#80565A;" d="M184.1,136.396c-0.489,0.933,1.604,1.518,3.138,2.913c1.549,1.408,1.723,2.851,2.258,2.383
					c0.454-0.396,1.567-2.563-0.781-4.944C187.188,135.199,184.828,135.008,184.1,136.396z"/>
			</g>
			<g>
				<path style="fill:#80565A;" d="M176.52,134.86c-0.144,1.051-2.395,0.49-5.068,1.008c-2.698,0.523-4.032,1.742-4.551,1.163
					c-0.552-0.617-0.075-3.117,4.153-4.13C173.806,132.242,176.759,133.119,176.52,134.86z"/>
			</g>
			<g>
				<path style="fill:#634A64;" d="M180.278,156.442c0,0-4.995,0.171-11.295-3.892c0,0,0.653,5.174,3.992,6.367
					C177.326,160.472,180.278,156.442,180.278,156.442z"/>
				<path style="fill:#FFF4E9;" d="M178.018,156.832c-1.402-0.316-4.767-1.169-8.162-2.958c0,0,0.843,3.039,3.303,4.011
					C176.125,159.056,178.018,156.832,178.018,156.832z"/>
			</g>
			<path style="fill:#936466;" d="M156.114,116.392c3.302-5.416,8.482-8.965,15.021-8.745c4.859,0.163,9.078,2.507,13.084,5.053
				c3.594,2.284,10.356,8.646,15.075,6.545c0.382-0.17,0.674,0.449,0.317,0.659c-3.41,2.011-8.755-1.63-11.435-3.4
				c-5.905-3.901-11.768-8.842-19.419-7.984c-5.527,0.619-9.03,4.067-12.231,8.158C156.351,116.903,155.964,116.638,156.114,116.392
				L156.114,116.392z"/>
			<path style="fill:#936466;" d="M156.788,110.508c-0.785,2.37-1.491,5.467-0.114,7.77c0.212,0.355-0.17,0.855-0.566,0.625
				c-1.238-0.721-1.116-2.604-1.096-3.863c0.026-1.633,0.498-3.39,1.511-4.67C156.615,110.253,156.836,110.361,156.788,110.508
				L156.788,110.508z"/>
			<path style="fill:#936466;" d="M152.986,112.686c0.557,2.053,1.803,3.953,3.476,5.221c0.277,0.21,0.089,0.716-0.253,0.709
				c-1.111-0.02-1.8-1.133-2.317-1.974c-0.763-1.239-1.229-2.403-1.309-3.882C152.57,112.533,152.924,112.456,152.986,112.686
				L152.986,112.686z"/>
			<path style="fill:#D37A85;" d="M181.621,137.058c0,0-0.274,0.12-0.797,0.479c-0.497,0.342-1.153,0.91-1.768,1.744
				c-0.594,0.848-1.214,1.896-1.309,3.359c-0.065,1.172,0.083,2.726,0.703,4.03c0.577,1.339,1.929,2.403,2.252,3.001
				c0.011,0.067,0.067,0.125,0.059,0.187c0,0,0.014,0.147,0.02,0.001l-0.012,0.221c-0.019,0.174-0.027,0.019-0.027,0.094
				c-0.019,0.042-0.032,0.093-0.079,0.141c-0.143,0.21-0.538,0.421-0.916,0.55c-0.782,0.298-1.569,0.319-2.103,0.374
				c-0.549,0.008-0.863,0.012-0.863,0.012c-0.162,0.001-0.292,0.133-0.291,0.295c0.001,0.105,0.059,0.199,0.143,0.25
				c0,0,0.302,0.18,0.889,0.359c0.587,0.187,1.455,0.345,2.581,0.204c0.552-0.108,1.219-0.249,1.838-0.875
				c0.156-0.148,0.287-0.341,0.401-0.554c0.108-0.185,0.204-0.622,0.204-0.738l0.014-0.221c-0.003-0.294-0.026-0.284-0.044-0.441
				c-0.025-0.242-0.132-0.45-0.218-0.671c-0.432-0.803-1.009-1.166-1.433-1.59c-0.446-0.404-0.831-0.811-1.129-1.296
				c-0.616-0.999-0.837-2.107-0.859-3.36c-0.015-0.994,0.446-2.07,0.925-2.823c0.493-0.775,1.046-1.326,1.464-1.656
				c0.393-0.318,0.704-0.49,0.704-0.49c0.164-0.091,0.223-0.297,0.132-0.461c-0.085-0.154-0.273-0.216-0.432-0.147L181.621,137.058z
				"/>
			<g>
				<path style="fill:#80565A;" d="M197.48,122.652c-2.046,2.143-4.314,2.125-7.004,0.991c-7.244-3.055-17.003-13.938-24.188-3.133
					c-0.302,0.454-0.966,0.046-0.72-0.436c1.901-3.717,5.999-5.057,10.062-4.702c6.649,0.581,15.058,11.208,21.614,6.964
					C197.44,122.21,197.631,122.494,197.48,122.652L197.48,122.652z"/>
				<path style="fill:#80565A;" d="M172.377,111.744c-5.153-0.455-9.842,2.006-9.989,7.587c-0.011,0.413-0.652,0.515-0.741,0.089
					c-0.513-2.465,0.839-5.028,2.767-6.525c2.299-1.785,5.243-2.068,8.02-1.534C172.649,111.403,172.596,111.763,172.377,111.744
					L172.377,111.744z"/>
				<path style="fill:#80565A;" d="M162.692,122.762c-3.44,1.801-5.947,5.242-5.683,9.25c0.023,0.358-0.525,0.343-0.554-0.008
					c-0.352-4.228,1.836-8.43,6.014-9.796C162.793,122.102,162.992,122.605,162.692,122.762L162.692,122.762z"/>
				<path style="fill:#80565A;" d="M156.946,122.768c-0.598,0.457-1.172,1.116-1.532,1.776c-0.393,0.719-0.399,1.49-0.688,2.226
					c-0.089,0.228-0.421,0.309-0.551,0.064c-0.956-1.8,0.9-3.986,2.514-4.521C156.936,122.231,157.161,122.604,156.946,122.768
					L156.946,122.768z"/>
			</g>
			<path style="fill:#8B8D94;" d="M225.091,221.497c-1.005-3.844-2.672-4.847-2.672-4.847s-1.862,0.885-0.738,5.912
				c1.124,5.027,3.884,6.032,3.884,6.032S226.033,225.1,225.091,221.497z"/>
			
				<linearGradient id="SVGID_00000106842268818707230680000005841532536074970288_" gradientUnits="userSpaceOnUse" x1="194.8933" y1="224.7177" x2="162.0019" y2="224.7177">
				<stop  offset="0" style="stop-color:#FFB8A8"/>
				<stop  offset="0.348" style="stop-color:#FFB1A4"/>
				<stop  offset="0.8663" style="stop-color:#FF9C99"/>
				<stop  offset="1" style="stop-color:#FF9696"/>
			</linearGradient>
			<path style="fill:url(#SVGID_00000106842268818707230680000005841532536074970288_);" d="M191.127,222.626
				c-0.473-0.93-3.614-0.305-5.997,0.746c-0.806,0.355-2.141,1.122-3.615,1.987c-2.885,1.693,3.282,1.904,3.282,1.904
				s0.976-1.139,2.307-1.852C188.435,224.698,191.6,223.556,191.127,222.626z"/>
			<g>
				<polygon style="fill:#424447;" points="195.496,235.901 195.048,237.341 193.573,237.026 180.863,215.302 182.786,214.177 				
					"/>
				<polygon style="fill:#37393C;" points="182.174,214.535 195.211,236.817 195.496,235.901 182.786,214.177 				"/>
				
					<rect x="180.694" y="213.954" transform="matrix(0.8631 -0.505 0.505 0.8631 -83.5789 121.2376)" style="fill:#A6A9B3;" width="2.329" height="1.687"/>
				<path style="fill:#BBBEC7;" d="M182.394,213.507l-1.923,1.125l-0.511-0.874c-0.188-0.322-0.08-0.735,0.242-0.924l0.757-0.443
					c0.322-0.188,0.735-0.08,0.923,0.242L182.394,213.507z"/>
				<polygon style="fill:#37393C;" points="195.977,238.829 195.89,238.88 195.156,238.283 195.816,237.897 				"/>
				<path style="fill:#A6A9B3;" d="M195.472,235.908c-0.261,0.223-0.284,0.602-0.284,0.602s-0.318-0.221-0.654-0.053l-0.062,0.036
					c-0.309,0.21-0.245,0.58-0.245,0.58c-0.227-0.189-0.483-0.128-0.598-0.086l-0.058,0.034l1.579,1.266l0.674-0.395l-0.33-1.997
					L195.472,235.908z"/>
				<path style="fill:#A6A9B3;" d="M180.959,212.391l-0.422,0.247c0.322-0.188,0.735-0.08,0.923,0.242l0.4,0.684l-1.5,0.878
					l0.111,0.189l1.923-1.125l-0.511-0.874C181.694,212.311,181.281,212.203,180.959,212.391z"/>
				<path style="fill:#979AA0;" d="M195.824,237.893l-0.33-1.997l-0.021,0.012c-0.261,0.223-0.284,0.602-0.284,0.602l0.489,1.467
					L195.824,237.893z"/>
				<path style="fill:#BBBEC7;" d="M193.628,236.987l-0.058,0.034l1.579,1.266l0.144-0.084l-1.066-1.13
					C193.999,236.885,193.743,236.945,193.628,236.987z"/>
				
					<rect x="180.319" y="214.055" transform="matrix(0.8631 -0.505 0.505 0.8631 -83.3077 120.9634)" style="fill:#D5D8E0;" width="2.329" height="0.202"/>
				
					<rect x="182.156" y="213.557" transform="matrix(0.8631 -0.505 0.505 0.8631 -83.2844 121.5204)" style="fill:#979AA0;" width="0.759" height="1.687"/>
				
					<rect x="181.781" y="213.659" transform="matrix(0.8631 -0.5051 0.5051 0.8631 -83.0252 121.281)" style="fill:#BBBEC7;" width="0.759" height="0.202"/>
				
					<rect x="181.069" y="215.337" transform="matrix(0.8631 -0.505 0.505 0.8631 -83.8512 121.5147)" style="fill:#BBBEC7;" width="2.329" height="0.203"/>
				
					<rect x="182.531" y="214.941" transform="matrix(0.8633 -0.5047 0.5047 0.8633 -83.5302 121.7218)" style="fill:#A6A9B3;" width="0.759" height="0.203"/>
				<path style="fill:#979AA0;" d="M181.334,215.104c0.045,0.076,0.019,0.175-0.057,0.219c-0.076,0.045-0.175,0.019-0.219-0.057
					c-0.045-0.077-0.019-0.175,0.057-0.219C181.191,215.002,181.289,215.028,181.334,215.104z"/>
				<path style="fill:#979AA0;" d="M181.997,214.717c0.045,0.076,0.019,0.175-0.057,0.219c-0.076,0.045-0.175,0.019-0.219-0.057
					c-0.045-0.076-0.019-0.175,0.057-0.219C181.854,214.614,181.952,214.64,181.997,214.717z"/>
				<path style="fill:#77787A;" d="M193.461,235.498L193.461,235.498c-0.145,0.085-0.331,0.036-0.415-0.109l-10.737-18.352
					c-0.085-0.145-0.036-0.331,0.109-0.416l0,0c0.145-0.085,0.331-0.036,0.415,0.109l10.737,18.352
					C193.655,235.227,193.606,235.413,193.461,235.498z"/>
				<path style="fill:#D5D8E0;" d="M180.955,212.865c0.091,0.155-0.068,0.333-0.309,0.474s-0.453,0.228-0.565,0.037
					c-0.111-0.191,0.068-0.333,0.309-0.474C180.632,212.761,180.864,212.71,180.955,212.865z"/>
			</g>
			
				<linearGradient id="SVGID_00000116944895215074985470000000446180875259732665_" gradientUnits="userSpaceOnUse" x1="247.2872" y1="224.1105" x2="220.5631" y2="224.1105">
				<stop  offset="0" style="stop-color:#FFB8A8"/>
				<stop  offset="0.348" style="stop-color:#FFB1A4"/>
				<stop  offset="0.8663" style="stop-color:#FF9C99"/>
				<stop  offset="1" style="stop-color:#FF9696"/>
			</linearGradient>
			<path style="fill:url(#SVGID_00000116944895215074985470000000446180875259732665_);" d="M224.749,228.126
				c0.46,0.358-3.797-2.33-3.365-8.974c0,0,5.398-0.939,7.291-1.36c1.941-0.431,9.362-2.416,10.829-2.416
				c1.467,0,4.549,1.615,5.177,2.243c0.863,0.863,2.243,4.573,2.416,5.522c0.173,0.949-2.675,3.883-2.675,3.883
				s1.985,4.918,0.863,5.695c-1.122,0.777-2.502-2.243-4.228-4.918c-1.726-2.675-4.401-4.487-5.537-3.743
				c-0.607,0.397-0.825,1.234-0.33,2.017c1.035,1.639,4.487,3.969,3.71,5.264c-0.777,1.294-3.969-1.381-5.695-2.071
				c-1.726-0.69-3.193-0.949-4.401-1.985L224.749,228.126z"/>
			
				<linearGradient id="SVGID_00000071518978505628536410000009291459397102128787_" gradientUnits="userSpaceOnUse" x1="194.8933" y1="231.8577" x2="162.0017" y2="231.8577">
				<stop  offset="0" style="stop-color:#FFB8A8"/>
				<stop  offset="0.348" style="stop-color:#FFB1A4"/>
				<stop  offset="0.8663" style="stop-color:#FF9C99"/>
				<stop  offset="1" style="stop-color:#FF9696"/>
			</linearGradient>
			<path style="fill:url(#SVGID_00000071518978505628536410000009291459397102128787_);" d="M169.784,228.687
				c0,0,2.847,0.647,4.401,0.518c1.028-0.086,4.446-2.153,7.331-3.846c1.474-0.865,3.282,1.904,3.282,1.904s3.406,0.41,5.565,1.294
				c3.581,1.467,6.916,4.999,6.083,6.04c-0.749,0.936-1.565-0.27-3.475-1.5c-0.732-0.471-2.09-1.046-2.09-0.787
				c0,0.13,2.33,2.589,2.2,3.538c-0.127,0.934-3.279,2.675-4.444,2.675c-1.165,0-20.277,0-20.277,0L169.784,228.687z"/>
			<path style="fill:#D37A85;" d="M193.081,235.849c0.129-0.949-2.2-3.408-2.2-3.538c0-0.259,1.358,0.316,2.09,0.787
				c1.911,1.229,2.727,2.435,3.475,1.5c-0.518,0.194-1.122-0.842-2.589-1.877c-0.975-0.688-3.624-1.726-3.624-1.726
				s-3.796,5.298-5.824,5.867c-2.459,0.69-8.542-0.518-10.354-0.388c-1.812,0.129-4.918,0.388-4.918,0.388l-0.761,1.554
				l-0.016,0.108c0,0,19.113,0,20.277,0C189.802,238.524,192.954,236.782,193.081,235.849z"/>
			<path style="fill:#CBCCD5;" d="M138.332,171.5c-8.283,3.624-14.26,18.604-17.991,29.618c-5.436,16.049-7.556,28.321-1.979,35.205
				c3.792,4.68,51.249,2.416,51.249,2.416s2.761-5.005,2.071-13.461l-32.444-6.796c0,0,3.365-12.943,6.471-20.45
				C148.694,190.822,138.332,171.5,138.332,171.5z"/>
			<path style="fill:#ADAFB8;" d="M120.342,201.118c-5.436,16.049-7.308,28.127-1.979,35.205c5.862,7.787,51.249,2.416,51.249,2.416
				s-40.21-0.065-48.493-5.76C113.362,227.647,120.342,201.118,120.342,201.118z"/>
			<path style="fill:#FF9B99;" d="M243.883,218.418c0.443,1.623-2.653,4.595-2.653,4.595s1.553,2.265,2.653,4.465
				c1.1,2.2,1.704,4.854,1.402,5.242c1.122-0.777-0.863-5.695-0.863-5.695s2.848-2.934,2.675-3.883
				c-0.173-0.949-1.553-4.66-2.416-5.522c-0.628-0.628-3.71-2.243-5.177-2.243C240.647,215.506,243.494,216.995,243.883,218.418z"/>
			<path style="fill:#D37A85;" d="M223.192,226.429c0.912,1.331,1.778,1.869,1.557,1.697l4.055-0.842
				c1.208,1.036,2.675,1.294,4.401,1.985c1.726,0.69,4.918,3.365,5.695,2.071c-0.863,0.69-3.279-1.812-5.177-2.934
				c-1.761-1.041-3.193-1.467-5.177-2.934C227.903,225.526,225.175,226.043,223.192,226.429z"/>
			<rect x="166.678" y="238.338" style="fill:#C9BCCC;" width="83.784" height="1.437"/>
			<rect x="166.678" y="238.338" style="fill:#E0D9E2;" width="43.834" height="1.437"/>
		</g>
		<g>
			<rect x="232.601" y="235.978" style="fill:#4E4C63;" width="24.247" height="3.797"/>
			<path style="fill:#4E4C63;" d="M275.054,239.775h-24.592l7.316-11.273c0.361-0.557,0.98-0.893,1.644-0.893h23.527
				L275.054,239.775z"/>
			<path style="fill:#3D3B4C;" d="M279.799,239.775h-24.592l7.237-11.152c0.411-0.633,1.114-1.015,1.868-1.015h22.193
				c0.512,0,0.821,0.568,0.542,0.997L279.799,239.775z"/>
		</g>
		<g>
			<g>
				<path style="fill:#CC487E;" d="M72.439,227.405c0.011,0.035-0.056-0.147-0.062-0.123c0.078,0.148,0.016,0.04-0.06,0.01
					c-0.172-0.119-0.694-0.266-1.282-0.18c-0.594,0.08-1.178,0.398-1.489,1.063c-0.334,0.661-0.38,1.726-0.186,2.796
					c0.062,0.343,0.237,1.253,0.389,1.488c0.132,0.392,0.405,0.772,0.673,1.043c0.552,0.57,1.387,0.728,2.123,0.733
					c1.509-0.009,2.586-0.487,2.536-0.456l0.567,1.326c0,0-0.297,0.174-0.806,0.392c-0.512,0.204-1.255,0.515-2.241,0.595
					c-0.954,0.073-2.282-0.006-3.409-0.938c-0.549-0.465-1.011-1.018-1.337-1.733c-0.393-0.831-0.459-1.145-0.661-1.994
					c-0.232-1.328-0.296-2.88,0.372-4.318c0.659-1.475,2.104-2.272,3.206-2.389c1.136-0.156,2.072,0.156,2.736,0.614
					c0.343,0.263,0.558,0.469,0.767,0.87c0.13,0.272,0.099,0.243,0.117,0.274L72.439,227.405z"/>
				<path style="fill:#BF3054;" d="M72.439,227.405c0.011,0.035-0.056-0.147-0.062-0.123c0.078,0.148,0.016,0.04-0.06,0.01
					c-0.172-0.119-0.694-0.266-1.282-0.18c-0.594,0.08-1.178,0.398-1.489,1.063c-0.334,0.661-0.38,1.726-0.186,2.796
					c0.062,0.343,0.237,1.253,0.389,1.488c0.132,0.392,0.405,0.772,0.673,1.043c0.552,0.57,1.387,0.728,2.123,0.733
					c1.509-0.009,2.586-0.487,2.536-0.456l0.567,1.326c0,0-0.297,0.174-0.806,0.392c-0.512,0.204-1.255,0.515-2.241,0.595
					c-0.954,0.073-2.282-0.006-3.409-0.938c-0.549-0.465-1.011-1.018-1.337-1.733c-0.393-0.831-0.459-1.145-0.661-1.994
					c-0.232-1.328-0.296-2.88,0.372-4.318c0.659-1.475,2.104-2.272,3.206-2.389c1.136-0.156,2.072,0.156,2.736,0.614
					c0.343,0.263,0.558,0.469,0.767,0.87c0.13,0.272,0.099,0.243,0.117,0.274L72.439,227.405z"/>
				<path style="fill:#D94167;" d="M89.778,239.312c5.141-3.587,5.749-12.979,5.74-16.084c-0.001-0.557-0.421-0.993-0.938-0.993
					H72.721c-0.518,0-0.937,0.436-0.938,0.994c-0.007,3.106,1.721,13.419,6.094,16.083C80.3,240.788,87.209,240.439,89.778,239.312z
					"/>
				<path style="fill:#BF3054;" d="M94.58,222.235h-2.379c0.037,0.476,0.057,0.959,0.057,1.448c0,7.952-5.109,14.399-11.411,14.399
					c-2.106,0-4.079-0.721-5.773-1.977c0.778,1.393,1.707,2.54,2.802,3.207c2.423,1.476,9.332,1.127,11.901,0
					c5.141-3.587,5.749-12.979,5.74-16.084C95.517,222.671,95.097,222.235,94.58,222.235z"/>
			</g>
			<path style="fill:#FFFFFF;" d="M81.454,220.209c0,0,2.111-1.467,1.463-2.923c-0.828-1.862-7.988-1.547-7.988-5.33
				c0-3.783,7.012-3.525,7.012-6.018c0-2.493-2.878-1.878-2.927-4.814c-0.045-2.702,3.579-3.608,3.579-3.608
				s-2.359,1.545-1.75,3.437c0.61,1.891,4.878,1.891,4.878,4.986c0,3.095-4.512,4.47-4.512,6.018c0,1.547,3.548,1.994,4.268,3.954
				C86.542,218.807,81.454,220.209,81.454,220.209z"/>
		</g>
		<g>
			<g>
				
					<rect x="96.31" y="174.031" transform="matrix(0.9989 -0.0476 0.0476 0.9989 -9.6436 4.9811)" style="fill:#CC4865;" width="6.738" height="61.555"/>
				<g>
					
						<rect x="99.78" y="175.974" transform="matrix(0.9989 -0.0476 0.0476 0.9989 -8.2853 4.9993)" style="fill:#37393C;" width="1.912" height="0.683"/>
					
						<rect x="99.989" y="180.34" transform="matrix(0.9989 -0.0476 0.0476 0.9989 -8.4838 5.0084)" style="fill:#37393C;" width="1.912" height="0.683"/>
					
						<rect x="100.197" y="184.706" transform="matrix(0.9989 -0.0476 0.0476 0.9989 -8.7008 5.029)" style="fill:#37393C;" width="1.912" height="0.683"/>
					
						<rect x="100.405" y="189.072" transform="matrix(0.9989 -0.0476 0.0476 0.9989 -8.9085 5.0439)" style="fill:#37393C;" width="1.912" height="0.683"/>
					
						<rect x="100.613" y="193.438" transform="matrix(0.9989 -0.0476 0.0476 0.9989 -9.1163 5.0588)" style="fill:#37393C;" width="1.912" height="0.683"/>
					
						<rect x="100.821" y="197.803" transform="matrix(0.9989 -0.0476 0.0476 0.9989 -9.324 5.0736)" style="fill:#37393C;" width="1.912" height="0.683"/>
					
						<rect x="101.03" y="202.169" transform="matrix(0.9989 -0.0476 0.0476 0.9989 -9.5219 5.083)" style="fill:#37393C;" width="1.912" height="0.683"/>
					
						<rect x="101.238" y="206.535" transform="matrix(0.9989 -0.0476 0.0476 0.9989 -9.74 5.1037)" style="fill:#37393C;" width="1.912" height="0.683"/>
					
						<rect x="101.446" y="210.901" transform="matrix(0.9989 -0.0476 0.0476 0.9989 -9.9478 5.1185)" style="fill:#37393C;" width="1.912" height="0.683"/>
					
						<rect x="101.654" y="215.267" transform="matrix(0.9989 -0.0476 0.0476 0.9989 -10.1555 5.1334)" style="fill:#37393C;" width="1.912" height="0.683"/>
					
						<rect x="101.862" y="219.633" transform="matrix(0.9989 -0.0476 0.0476 0.9989 -10.3633 5.1483)" style="fill:#37393C;" width="1.912" height="0.683"/>
					
						<rect x="102.071" y="223.998" transform="matrix(0.9989 -0.0476 0.0476 0.9989 -10.5596 5.1572)" style="fill:#37393C;" width="1.912" height="0.683"/>
					
						<rect x="102.279" y="228.364" transform="matrix(0.9989 -0.0476 0.0476 0.9989 -10.7788 5.178)" style="fill:#37393C;" width="1.912" height="0.683"/>
					
						<rect x="102.487" y="232.73" transform="matrix(0.9989 -0.0476 0.0476 0.9989 -10.9866 5.1929)" style="fill:#37393C;" width="1.912" height="0.683"/>
				</g>
				
					<rect x="97.283" y="175.236" transform="matrix(0.9989 -0.0476 0.0476 0.9989 -9.6496 4.9147)" style="fill:#FF7D8D;" width="1.973" height="59.279"/>
			</g>
			<g>
				<polygon style="fill:#424447;" points="107.313,225.4 106.106,226.437 104.964,225.329 105.775,198.78 108.125,198.852 				"/>
				<polygon style="fill:#37393C;" points="107.377,198.829 106.545,226.06 107.313,225.4 108.125,198.852 				"/>
				
					<rect x="105.719" y="197.997" transform="matrix(0.9995 0.0305 -0.0305 0.9995 6.1198 -3.1713)" style="fill:#A6A9B3;" width="2.457" height="1.781"/>
				<path style="fill:#BBBEC7;" d="M108.15,198.033l-2.35-0.072l0.033-1.068c0.012-0.393,0.34-0.702,0.734-0.69l0.926,0.028
					c0.393,0.012,0.702,0.34,0.69,0.734L108.15,198.033z"/>
				<polygon style="fill:#37393C;" points="106.103,228.289 105.996,228.285 105.674,227.34 106.481,227.365 				"/>
				<path style="fill:#A6A9B3;" d="M107.288,225.394c-0.359,0.053-0.592,0.379-0.592,0.379s-0.16-0.376-0.555-0.414l-0.076-0.002
					c-0.394,0.014-0.544,0.381-0.544,0.381c-0.098-0.296-0.36-0.386-0.487-0.412l-0.071-0.002l0.702,2.017l0.824,0.025l0.824-1.97
					L107.288,225.394z"/>
				<path style="fill:#A6A9B3;" d="M107.492,196.232l-0.516-0.016c0.393,0.012,0.702,0.34,0.69,0.734l-0.026,0.837l-1.833-0.056
					l-0.007,0.231l2.35,0.072l0.033-1.068C108.195,196.572,107.885,196.243,107.492,196.232z"/>
				<path style="fill:#979AA0;" d="M106.49,227.365l0.824-1.97l-0.026-0.001c-0.359,0.053-0.592,0.379-0.592,0.379l-0.385,1.586
					L106.49,227.365z"/>
				<path style="fill:#BBBEC7;" d="M105.035,225.325l-0.071-0.002l0.702,2.017l0.176,0.005l-0.32-1.608
					C105.424,225.441,105.161,225.352,105.035,225.325z"/>
				
					<rect x="105.743" y="197.997" transform="matrix(0.9995 0.0306 -0.0306 0.9995 6.1038 -3.1764)" style="fill:#D5D8E0;" width="2.457" height="0.214"/>
				
					<rect x="107.375" y="198.022" transform="matrix(0.9995 0.0305 -0.0305 0.9995 6.1072 -3.1897)" style="fill:#979AA0;" width="0.801" height="1.781"/>
				
					<rect x="107.693" y="197.729" transform="matrix(0.0309 -0.9995 0.9995 0.0309 -93.5646 299.7584)" style="fill:#BBBEC7;" width="0.214" height="0.801"/>
				
					<rect x="105.695" y="199.564" transform="matrix(0.9995 0.0305 -0.0305 0.9995 6.1437 -3.1703)" style="fill:#BBBEC7;" width="2.457" height="0.214"/>
				
					<rect x="107.645" y="199.295" transform="matrix(0.0304 -0.9995 0.9995 0.0304 -95.1292 301.3235)" style="fill:#A6A9B3;" width="0.214" height="0.801"/>
				<path style="fill:#979AA0;" d="M106.307,198.868c-0.003,0.093-0.081,0.167-0.174,0.164c-0.093-0.003-0.167-0.081-0.164-0.174
					c0.003-0.093,0.081-0.167,0.174-0.164C106.237,198.696,106.31,198.774,106.307,198.868z"/>
				<path style="fill:#979AA0;" d="M107.117,198.893c-0.003,0.093-0.081,0.167-0.174,0.164c-0.093-0.003-0.167-0.081-0.164-0.174
					c0.003-0.093,0.081-0.167,0.174-0.164C107.046,198.721,107.12,198.799,107.117,198.893z"/>
				<path style="fill:#77787A;" d="M105.72,223.9L105.72,223.9c-0.177-0.005-0.316-0.153-0.311-0.33l0.686-22.428
					c0.005-0.177,0.153-0.316,0.33-0.311l0,0c0.177,0.005,0.316,0.153,0.311,0.33l-0.686,22.428
					C106.045,223.766,105.897,223.905,105.72,223.9z"/>
				<path style="fill:#D5D8E0;" d="M107.223,196.653c-0.006,0.189-0.247,0.26-0.542,0.251s-0.533-0.051-0.526-0.283
					c0.007-0.233,0.247-0.26,0.542-0.251C106.992,196.379,107.229,196.463,107.223,196.653z"/>
			</g>
			<g>
				<polygon style="fill:#FFCA43;" points="97.981,232.751 96.924,233.941 95.643,232.997 92.874,206.58 95.212,206.335 				"/>
				<polygon style="fill:#E89639;" points="94.468,206.413 97.308,233.508 97.981,232.751 95.212,206.335 				"/>
				
					<rect x="92.822" y="205.638" transform="matrix(0.9946 -0.1043 0.1043 0.9946 -21.0187 10.9304)" style="fill:#A6A9B3;" width="2.458" height="1.781"/>
				<path style="fill:#BBBEC7;" d="M95.127,205.521l-2.338,0.245l-0.111-1.063c-0.041-0.391,0.243-0.742,0.634-0.783l0.921-0.097
					c0.391-0.041,0.742,0.243,0.783,0.634L95.127,205.521z"/>
				<polygon style="fill:#37393C;" points="97.17,235.776 97.064,235.788 96.618,234.894 97.421,234.81 				"/>
				<path style="fill:#A6A9B3;" d="M97.955,232.749c-0.348,0.1-0.535,0.455-0.535,0.455s-0.209-0.351-0.606-0.336l-0.075,0.008
					c-0.389,0.067-0.488,0.451-0.488,0.451c-0.137-0.28-0.409-0.334-0.538-0.343l-0.07,0.007l0.967,1.904l0.82-0.086l0.551-2.063
					L97.955,232.749z"/>
				<path style="fill:#A6A9B3;" d="M94.233,203.824l-0.514,0.054c0.391-0.041,0.742,0.243,0.783,0.634l0.087,0.833l-1.824,0.191
					l0.024,0.23l2.338-0.245l-0.111-1.063C94.974,204.067,94.624,203.783,94.233,203.824z"/>
				<path style="fill:#979AA0;" d="M97.429,234.809l0.551-2.063l-0.025,0.003c-0.348,0.1-0.535,0.455-0.535,0.455l-0.168,1.624
					L97.429,234.809z"/>
				<path style="fill:#BBBEC7;" d="M95.713,232.984l-0.07,0.007l0.967,1.904l0.175-0.018l-0.534-1.55
					C96.114,233.046,95.842,232.993,95.713,232.984z"/>
				
					<rect x="92.74" y="205.643" transform="matrix(0.9946 -0.1042 0.1042 0.9946 -20.93 10.913)" style="fill:#D5D8E0;" width="2.458" height="0.214"/>
				
					<rect x="94.474" y="205.552" transform="matrix(0.9945 -0.1043 0.1043 0.9945 -21.0186 11.0238)" style="fill:#979AA0;" width="0.801" height="1.781"/>
				
					<rect x="94.392" y="205.556" transform="matrix(0.9946 -0.1039 0.1039 0.9946 -20.8469 10.957)" style="fill:#BBBEC7;" width="0.801" height="0.214"/>
				
					<rect x="92.904" y="207.201" transform="matrix(0.9946 -0.1043 0.1043 0.9946 -21.0995 10.9432)" style="fill:#BBBEC7;" width="2.457" height="0.214"/>
				
					<rect x="94.555" y="207.115" transform="matrix(0.9945 -0.1043 0.1043 0.9945 -21.0992 11.0364)" style="fill:#A6A9B3;" width="0.801" height="0.214"/>
				<path style="fill:#979AA0;" d="M93.413,206.596c0.01,0.093-0.058,0.176-0.151,0.186c-0.093,0.01-0.176-0.058-0.186-0.151
					c-0.01-0.093,0.058-0.176,0.151-0.186C93.32,206.435,93.403,206.503,93.413,206.596z"/>
				<path style="fill:#979AA0;" d="M94.219,206.511c0.01,0.093-0.058,0.176-0.151,0.186c-0.093,0.01-0.176-0.058-0.186-0.151
					c-0.01-0.093,0.058-0.176,0.151-0.186C94.126,206.351,94.209,206.418,94.219,206.511z"/>
				<path style="fill:#FFE4AE;" d="M96.2,231.479L96.2,231.479c-0.176,0.018-0.334-0.109-0.352-0.285l-2.339-22.316
					c-0.018-0.176,0.109-0.334,0.285-0.352l0,0c0.176-0.018,0.334,0.109,0.352,0.285l2.339,22.316
					C96.504,231.303,96.376,231.46,96.2,231.479z"/>
				<path style="fill:#D5D8E0;" d="M94.023,204.278c0.02,0.188-0.21,0.291-0.504,0.321c-0.294,0.031-0.535,0.022-0.559-0.21
					c-0.024-0.232,0.21-0.291,0.504-0.321C93.757,204.037,94.003,204.089,94.023,204.278z"/>
			</g>
			<g>
				<path style="fill:#7E8082;" d="M107.579,236.161c-0.032,0.287-0.141,0.51-0.242,0.499c-0.101-0.011-0.157-0.253-0.125-0.54
					c0.032-0.287,0.141-0.51,0.242-0.499C107.556,235.632,107.612,235.874,107.579,236.161z"/>
				<path style="fill:#37393C;" d="M107.632,236.251c0.795-1.297,1.982-7.382,2.854-15.122c0.983-8.735,1.67-15.829,0.397-15.972
					c-1.272-0.143-2.179,6.926-3.162,15.661c-0.871,7.74-1.067,13.937-0.579,15.378L107.632,236.251z"/>
				
					<rect x="108.187" y="216.039" transform="matrix(0.9937 0.1119 -0.1119 0.9937 24.9459 -10.895)" style="fill:#A7AAAF;" width="2.757" height="1.646"/>
				<path style="opacity:0.4;fill:#A7AAAF;" d="M107.532,234.053c0.386-0.975,1.099-7.451,1.739-13.136
					c0.722-6.417,1.57-13.267,1.029-13.328c-0.541-0.061-1.482,6.779-2.204,13.195c-0.64,5.686-0.932,12.209-0.772,13.245
					L107.532,234.053z"/>
			</g>
			<polygon style="fill:#4E4C63;" points="110.242,239.775 94.398,239.775 91.757,212.594 112.883,212.594 			"/>
			<polygon style="fill:#3D3B4C;" points="110.242,239.775 94.398,239.775 105.25,237.729 106.381,215.974 91.757,212.594 
				112.883,212.594 			"/>
			<g>
				<path style="fill:#8B8AA0;" d="M93.441,214.792l1.358,15.16c0,0,4.246-2.467,4.167-8.121
					C98.885,216.006,93.441,214.792,93.441,214.792z"/>
				<path style="fill:#8B8AA0;" d="M95.057,231.452l0.371,4.901c0,0,1.659-0.781,1.711-2.522
					C97.202,231.717,95.057,231.452,95.057,231.452z"/>
			</g>
		</g>
		<g>
			<rect x="50.45" y="239.774" style="fill:#E8D4C0;" width="283.365" height="5.954"/>
			<rect x="142.589" y="239.774" style="fill:#CCAE96;" width="191.225" height="5.954"/>
		</g>
	</g>
</g>
</svg>
